{"asset":{"version":"2.0","generator":"babylon.js glTF exporter for 3ds max 2017 v1.2.11","copyright":"2017 (c) BabylonJS"},"extensionsUsed":["KHR_lights"],"scene":0,"scenes":[{"nodes":[0],"extensions":{"KHR_lights":{"light":0}}}],"nodes":[{"mesh":0,"translation":[0.0,129.88855,0.0],"rotation":[5.3385083E-08,-0.7071068,0.7071068,5.3385083E-08],"scale":[1.0,1.0,1.0],"name":"TextPlus004"}],"meshes":[{"primitives":[{"attributes":{"POSITION":1,"NORMAL":2},"indices":0,"mode":4,"material":0}],"name":"TextPlus004"}],"accessors":[{"bufferView":0,"componentType":5123,"count":64260,"type":"SCALAR","name":"accessorIndices"},{"bufferView":1,"componentType":5126,"count":64260,"max":[105.903778,3.6582,-1.29675293],"min":[-105.71666,-4.312831E-06,-102.144012],"type":"VEC3","name":"accessorPositions"},{"bufferView":1,"byteOffset":771120,"componentType":5126,"count":64260,"type":"VEC3","name":"accessorNormals"}],"bufferViews":[{"buffer":0,"byteLength":128520,"name":"bufferViewScalar"},{"buffer":0,"byteOffset":128520,"byteLength":1542240,"byteStride":12,"name":"bufferViewFloatVec3"}],"buffers":[{"uri":"text.bin","byteLength":1670760}],"materials":[{"pbrMetallicRoughness":{"baseColorFactor":[0.200163439,0.200163439,0.200163439,1.0],"metallicFactor":0.0,"roughnessFactor":0.9},"emissiveFactor":[0.0,0.0,0.0],"alphaMode":"OPAQUE","name":"08 - Default"}],"extensions":{"KHR_lights":{"lights":[{"color":[1.0,1.0,1.0],"intensity":1.0,"type":"ambient"}]}}}